<svg width="1336" height="663" viewBox="0 0 1336 663" fill="none" xmlns="http://www.w3.org/2000/svg">
<rect width="1336" height="663" fill="#9D50FA"/>
<g clip-path="url(#clip0_117_42)">
<path d="M798.912 429.681C798.774 429.601 798.621 429.548 798.463 429.527C798.304 429.506 798.143 429.516 797.989 429.557L759.548 439.747L754.861 434.467C754.279 433.812 753.461 433.415 752.586 433.364C751.711 433.312 750.852 433.61 750.196 434.191L733.546 448.974C733.221 449.262 732.957 449.611 732.767 450.001C732.577 450.392 732.466 450.816 732.44 451.249C732.414 451.683 732.474 452.117 732.616 452.527C732.758 452.937 732.98 453.315 733.268 453.64L748.051 470.291C748.339 470.616 748.688 470.88 749.079 471.07C749.469 471.26 749.893 471.37 750.327 471.396C750.76 471.422 751.194 471.362 751.604 471.22C752.014 471.077 752.392 470.856 752.717 470.568L763.636 460.873L772.642 494.842C772.683 494.997 772.754 495.143 772.851 495.27C772.948 495.397 773.069 495.505 773.207 495.585C773.346 495.666 773.498 495.718 773.657 495.74C773.816 495.761 773.977 495.751 774.132 495.71L812.807 485.462C812.868 485.447 812.926 485.426 812.983 485.401C813.25 485.285 813.466 485.077 813.592 484.815C813.718 484.553 813.747 484.255 813.672 483.974L799.478 430.424C799.437 430.269 799.366 430.124 799.269 429.996C799.172 429.869 799.05 429.761 798.912 429.681V429.681ZM751.101 468.747C750.928 468.899 750.702 468.976 750.472 468.963C750.242 468.95 750.027 468.847 749.873 468.676L735.087 452.025C734.934 451.852 734.855 451.626 734.869 451.396C734.882 451.166 734.986 450.95 735.158 450.797L751.814 436.012C751.986 435.859 752.212 435.781 752.442 435.794C752.672 435.808 752.887 435.912 753.04 436.084L767.822 452.738C767.975 452.91 768.053 453.136 768.04 453.366C768.027 453.596 767.922 453.811 767.75 453.964L763.561 457.684C763.552 457.691 763.544 457.698 763.536 457.706L751.101 468.747ZM769.367 455.785C770.022 455.203 770.419 454.384 770.471 453.51C770.523 452.635 770.226 451.776 769.644 451.12L767.149 448.309L766.223 444.815L794.47 437.323L805.903 480.447L777.659 487.937L769.182 455.953L769.367 455.785ZM811.005 483.416L774.685 493.042L765.676 459.062L767.139 457.763L775.615 489.74C775.655 489.895 775.726 490.04 775.823 490.168C775.92 490.295 776.041 490.402 776.18 490.483C776.318 490.564 776.471 490.616 776.63 490.637C776.789 490.659 776.95 490.649 777.105 490.608L807.706 482.492C807.766 482.475 807.825 482.454 807.882 482.43C808.148 482.313 808.364 482.105 808.49 481.843C808.617 481.582 808.645 481.284 808.571 481.003L796.513 435.525C796.473 435.37 796.402 435.224 796.305 435.097C796.208 434.97 796.087 434.862 795.948 434.782C795.81 434.701 795.657 434.649 795.498 434.627C795.34 434.606 795.178 434.616 795.023 434.657L764.422 442.773C764.267 442.813 764.121 442.884 763.993 442.98C763.865 443.077 763.758 443.198 763.677 443.337C763.597 443.476 763.544 443.629 763.523 443.788C763.502 443.947 763.513 444.108 763.555 444.263L761.357 441.787L797.433 432.224L811.005 483.416Z" fill="white" fill-opacity="0.37"/>
<path d="M796.809 457.693C797.121 457.61 797.388 457.407 797.551 457.127C797.713 456.848 797.759 456.515 797.676 456.203L796.658 452.361C796.618 452.205 796.548 452.058 796.451 451.93C796.354 451.801 796.233 451.693 796.094 451.611C795.956 451.53 795.802 451.476 795.643 451.454C795.483 451.433 795.321 451.443 795.166 451.484C795.01 451.525 794.864 451.597 794.736 451.695C794.609 451.793 794.502 451.915 794.422 452.054C794.341 452.194 794.29 452.348 794.269 452.508C794.249 452.667 794.261 452.829 794.304 452.985L795.322 456.827C795.405 457.138 795.608 457.405 795.886 457.567C796.165 457.73 796.497 457.775 796.809 457.693V457.693Z" fill="white" fill-opacity="0.37"/>
<path d="M784.171 474.587C784.696 474.51 785.216 474.403 785.737 474.305L786.692 477.9C786.408 478.02 786.181 478.242 786.055 478.523C785.929 478.804 785.914 479.122 786.014 479.414C786.114 479.705 786.32 479.947 786.592 480.092C786.863 480.237 787.18 480.273 787.477 480.194L793.533 478.587C793.593 478.571 793.652 478.55 793.71 478.525C793.977 478.409 794.193 478.201 794.319 477.938C794.445 477.676 794.473 477.377 794.397 477.095C794.321 476.814 794.147 476.57 793.906 476.406C793.665 476.243 793.373 476.171 793.084 476.205L792.129 472.611C792.63 472.438 793.133 472.271 793.628 472.08L793.76 472.022C794.161 471.848 794.523 471.595 794.825 471.279C795.126 470.963 795.362 470.59 795.518 470.182C795.675 469.774 795.748 469.339 795.734 468.902C795.72 468.465 795.62 468.036 795.438 467.638C795.11 466.896 794.517 466.302 793.775 465.973C793.032 465.644 792.194 465.603 791.424 465.859L787.25 450.135C787.184 449.888 787.043 449.668 786.845 449.506L782.702 446.107C782.553 445.985 782.377 445.899 782.188 445.858C782 445.817 781.804 445.822 781.618 445.871C781.431 445.92 781.259 446.013 781.116 446.142C780.972 446.271 780.861 446.433 780.792 446.613L778.879 451.618C778.789 451.857 778.775 452.118 778.84 452.365L783.012 468.094C782.171 468.268 781.431 468.764 780.95 469.476C780.469 470.187 780.284 471.058 780.435 471.904C780.586 472.749 781.061 473.503 781.758 474.004C782.456 474.505 783.321 474.714 784.171 474.587V474.587ZM790.723 476.812L789.041 477.258L788.119 473.789C788.683 473.65 789.243 473.501 789.801 473.342L790.723 476.812ZM781.293 452.123L782.462 449.065L784.994 451.142L789.114 466.655C787.897 467.043 786.662 467.371 785.411 467.638L781.293 452.123ZM782.821 471.38C782.799 471.165 782.861 470.95 782.993 470.779C783.125 470.609 783.318 470.495 783.531 470.462C783.887 470.408 784.245 470.333 784.601 470.269C784.69 470.263 784.778 470.247 784.864 470.222C786.891 469.845 788.886 469.316 790.834 468.641C790.855 468.637 790.876 468.637 790.898 468.631C790.958 468.615 791.017 468.594 791.074 468.569C791.098 468.559 791.119 468.544 791.142 468.532C791.474 468.414 791.809 468.306 792.137 468.18C792.296 468.126 792.467 468.118 792.63 468.158C792.793 468.198 792.942 468.284 793.057 468.406C793.173 468.528 793.251 468.681 793.282 468.846C793.313 469.011 793.296 469.181 793.233 469.337C793.19 469.445 793.125 469.543 793.042 469.624C792.959 469.706 792.86 469.768 792.75 469.808C790.658 470.61 788.506 471.247 786.314 471.714L786.309 471.717L786.306 471.718C785.476 471.896 784.643 472.054 783.805 472.182C783.691 472.2 783.574 472.194 783.462 472.164C783.349 472.135 783.244 472.083 783.153 472.011C783.056 471.935 782.977 471.84 782.92 471.731C782.862 471.622 782.829 471.502 782.821 471.38V471.38Z" fill="white" fill-opacity="0.37"/>
<path d="M778.116 504.81L777.629 504.218C776.551 502.609 775.62 500.907 774.846 499.132C774.825 499.09 774.802 499.049 774.776 499.01C774.72 498.846 774.628 498.697 774.508 498.572C774.448 498.513 768.981 493.048 766.191 488.154L766.601 487.974C766.897 487.845 767.129 487.604 767.247 487.303C767.365 487.002 767.358 486.667 767.229 486.371L765.557 482.545C765.459 482.321 765.295 482.131 765.086 482.001C764.878 481.872 764.635 481.808 764.39 481.819C764.484 480.708 764.288 479.592 763.821 478.579C763.354 477.566 762.632 476.692 761.726 476.043C760.82 475.393 759.76 474.99 758.651 474.873C757.542 474.757 756.422 474.93 755.4 475.376C754.378 475.823 753.489 476.527 752.822 477.42C752.154 478.314 751.73 479.365 751.591 480.471C751.452 481.578 751.602 482.701 752.028 483.732C752.454 484.763 753.14 485.665 754.02 486.351C753.845 486.523 753.727 486.744 753.68 486.984C753.633 487.225 753.661 487.474 753.759 487.699L755.43 491.525C755.494 491.672 755.586 491.804 755.702 491.915C755.817 492.026 755.953 492.113 756.102 492.171C756.251 492.23 756.41 492.258 756.569 492.255C756.729 492.252 756.887 492.217 757.034 492.153L757.441 491.975C759.136 497.343 759.439 505.074 759.442 505.155C759.452 505.325 759.499 505.491 759.579 505.642C759.591 505.69 759.606 505.736 759.624 505.782C759.871 506.348 760.297 507.433 760.697 508.585C761.026 509.462 761.284 510.365 761.469 511.284L761.57 512.037C761.075 512.503 760.736 513.109 760.599 513.774C760.461 514.44 760.532 515.131 760.803 515.754L761.638 517.667C761.702 517.814 761.794 517.946 761.91 518.057C762.025 518.168 762.161 518.255 762.31 518.314C762.459 518.372 762.618 518.4 762.778 518.397C762.937 518.394 763.095 518.359 763.242 518.295L781.573 510.286C781.869 510.156 782.101 509.915 782.219 509.614C782.337 509.314 782.33 508.978 782.201 508.682L781.365 506.77C781.091 506.148 780.632 505.627 780.05 505.276C779.469 504.925 778.793 504.762 778.116 504.81V504.81ZM762.994 507.789C762.782 507.172 762.543 506.52 762.316 505.935L773.126 501.212C773.845 502.762 774.693 504.248 775.662 505.655L763.854 510.814C763.641 509.786 763.353 508.775 762.994 507.789V507.789ZM757.694 489.208L757.175 489.435L756.478 487.841L763.811 484.637L764.507 486.231L757.694 489.208ZM756.382 477.632C757.122 477.307 757.943 477.214 758.737 477.365C759.53 477.517 760.259 477.906 760.827 478.48C761.395 479.055 761.775 479.789 761.917 480.584C762.059 481.38 761.956 482.2 761.622 482.935L756.713 485.081C755.946 484.826 755.274 484.344 754.787 483.7C754.3 483.055 754.02 482.278 753.984 481.471C753.948 480.663 754.158 479.864 754.586 479.179C755.014 478.493 755.64 477.954 756.381 477.632L756.382 477.632ZM763.946 489.134C766.135 493.067 769.863 497.231 771.702 499.177L761.788 503.508C761.609 500.838 761.083 495.275 759.683 490.996L763.946 489.134ZM779.477 508.545L763.378 515.579L763.029 514.781C762.937 514.57 762.932 514.331 763.017 514.116C763.101 513.901 763.267 513.729 763.478 513.636L777.983 507.298C778.195 507.206 778.434 507.202 778.649 507.286C778.863 507.37 779.036 507.536 779.129 507.747L779.477 508.545Z" fill="white" fill-opacity="0.37"/>
<path d="M751.168 456.028C750.515 455.99 749.866 456.145 749.302 456.476C748.738 456.806 748.284 457.296 747.999 457.884C747.713 458.472 747.608 459.132 747.698 459.779C747.787 460.427 748.066 461.033 748.5 461.522C748.861 461.929 749.316 462.24 749.826 462.428C750.336 462.616 750.884 462.676 751.422 462.602C751.961 462.527 752.473 462.321 752.912 462.002C753.352 461.683 753.707 461.26 753.944 460.771C754.181 460.282 754.295 459.743 754.273 459.199C754.252 458.656 754.098 458.127 753.823 457.658C753.549 457.189 753.163 456.795 752.7 456.51C752.236 456.226 751.71 456.061 751.168 456.028V456.028ZM751.84 459.379C751.833 459.493 751.804 459.605 751.754 459.708C751.704 459.81 751.634 459.902 751.549 459.978C751.442 460.074 751.313 460.142 751.173 460.175C751.034 460.209 750.888 460.208 750.75 460.172C750.611 460.136 750.483 460.066 750.377 459.969C750.272 459.872 750.192 459.75 750.145 459.614C750.099 459.478 750.086 459.333 750.109 459.192C750.131 459.05 750.189 458.916 750.276 458.802C750.363 458.688 750.476 458.597 750.607 458.538C750.738 458.478 750.881 458.452 751.024 458.461C751.254 458.475 751.47 458.58 751.623 458.752C751.776 458.925 751.855 459.151 751.841 459.382L751.84 459.379Z" fill="white" fill-opacity="0.37"/>
<path d="M746.696 454.511C747.021 454.223 747.286 453.874 747.475 453.484C747.665 453.093 747.776 452.669 747.802 452.236C747.828 451.803 747.768 451.369 747.626 450.958C747.484 450.548 747.263 450.17 746.974 449.846C746.569 449.39 746.046 449.055 745.463 448.878C744.88 448.702 744.259 448.689 743.669 448.843C743.079 448.997 742.543 449.311 742.121 449.751C741.699 450.19 741.406 450.738 741.275 451.333C741.145 451.929 741.181 452.549 741.381 453.125C741.581 453.701 741.936 454.21 742.407 454.597C742.879 454.983 743.448 455.232 744.052 455.315C744.655 455.399 745.27 455.314 745.829 455.069C746.146 454.93 746.438 454.742 746.696 454.511V454.511ZM743.851 452.619C743.736 452.49 743.662 452.331 743.638 452.16C743.614 451.989 743.641 451.815 743.716 451.66C743.791 451.504 743.91 451.375 744.059 451.288C744.207 451.2 744.379 451.159 744.551 451.169C744.723 451.179 744.888 451.239 745.026 451.343C745.163 451.447 745.267 451.59 745.323 451.753C745.38 451.916 745.387 452.092 745.343 452.259C745.3 452.425 745.208 452.576 745.079 452.69C744.906 452.843 744.68 452.921 744.45 452.908C744.22 452.895 744.005 452.791 743.851 452.619V452.619Z" fill="white" fill-opacity="0.37"/>
<path d="M761.71 452.915C761.737 452.482 761.678 452.048 761.536 451.637C761.394 451.227 761.172 450.849 760.882 450.525C760.375 449.954 759.685 449.577 758.93 449.457C758.175 449.338 757.403 449.483 756.743 449.87C756.084 450.256 755.579 450.859 755.315 451.576C755.05 452.292 755.042 453.079 755.292 453.801C755.542 454.523 756.035 455.136 756.686 455.535C757.338 455.935 758.107 456.096 758.864 455.992C759.621 455.887 760.318 455.524 760.837 454.963C761.356 454.402 761.665 453.679 761.71 452.916L761.71 452.915ZM759.279 452.771C759.267 452.972 759.186 453.163 759.049 453.31C758.913 453.458 758.729 453.554 758.529 453.582C758.33 453.609 758.127 453.567 757.955 453.461C757.784 453.356 757.654 453.195 757.588 453.004C757.522 452.814 757.524 452.607 757.594 452.418C757.664 452.229 757.797 452.07 757.97 451.968C758.144 451.866 758.348 451.828 758.547 451.86C758.746 451.891 758.927 451.991 759.061 452.141C759.137 452.227 759.196 452.326 759.233 452.434C759.27 452.542 759.286 452.657 759.279 452.771V452.771Z" fill="white" fill-opacity="0.37"/>
<path d="M754.137 447.906C754.752 447.356 755.138 446.595 755.217 445.774C755.296 444.953 755.063 444.133 754.564 443.476C754.065 442.819 753.337 442.374 752.525 442.23C751.713 442.086 750.876 442.253 750.181 442.698C749.487 443.144 748.986 443.834 748.778 444.632C748.57 445.43 748.67 446.278 749.059 447.005C749.448 447.733 750.096 448.287 750.875 448.558C751.655 448.829 752.507 448.796 753.263 448.466C753.582 448.327 753.877 448.138 754.137 447.906V447.906ZM751.892 446.305C751.691 446.293 751.5 446.212 751.353 446.075C751.205 445.938 751.109 445.755 751.081 445.555C751.054 445.356 751.096 445.153 751.201 444.981C751.307 444.809 751.468 444.68 751.659 444.614C751.849 444.548 752.056 444.55 752.245 444.62C752.434 444.689 752.593 444.822 752.695 444.996C752.796 445.17 752.835 445.374 752.803 445.573C752.772 445.772 752.672 445.953 752.521 446.087C752.436 446.163 752.336 446.221 752.228 446.258C752.12 446.295 752.005 446.31 751.891 446.302L751.892 446.305Z" fill="white" fill-opacity="0.37"/>
</g>
<g clip-path="url(#clip1_117_42)">
<path d="M497.887 337.73C496.399 337.424 494.945 338.383 494.639 339.871C494.334 341.359 495.292 342.813 496.78 343.119C498.268 343.424 499.722 342.466 500.028 340.978C500.334 339.49 499.375 338.035 497.887 337.73ZM480.759 311.747C479.271 311.441 477.817 312.4 477.512 313.888C477.206 315.376 478.165 316.83 479.653 317.136C481.141 317.442 482.595 316.483 482.9 314.995C483.206 313.507 482.248 312.053 480.759 311.747ZM502.315 316.175C500.827 315.869 499.372 316.828 499.067 318.316C498.761 319.804 499.72 321.258 501.208 321.563C502.696 321.869 504.15 320.91 504.456 319.422C504.761 317.934 503.803 316.48 502.315 316.175ZM489.323 324.738C487.835 324.433 486.381 325.391 486.075 326.879C485.77 328.367 486.728 329.822 488.216 330.127C489.704 330.433 491.159 329.474 491.464 327.986C491.77 326.498 490.811 325.044 489.323 324.738ZM476.332 333.302C474.844 332.997 473.39 333.955 473.084 335.443C472.778 336.931 473.737 338.385 475.225 338.691C476.713 338.997 478.167 338.038 478.473 336.55C478.779 335.062 477.82 333.608 476.332 333.302ZM533.67 290.505C532.402 291.341 532.051 293.047 532.887 294.315C533.724 295.584 535.429 295.934 536.698 295.098C537.966 294.262 538.317 292.556 537.48 291.287C536.644 290.019 534.938 289.669 533.67 290.505ZM527.409 320.988C526.14 321.824 525.79 323.53 526.626 324.799C527.462 326.067 529.168 326.418 530.436 325.581C531.705 324.745 532.055 323.039 531.219 321.771C530.383 320.503 528.677 320.152 527.409 320.988ZM560.292 305.901L545.153 282.935C543.536 280.482 541.059 278.805 538.18 278.213C535.302 277.622 532.365 278.187 529.911 279.805L506.945 294.943C504.529 296.536 502.861 298.971 502.248 301.799C502.026 302.825 501.953 303.861 502.022 304.882L477.405 299.826C472.948 298.91 468.577 301.792 467.661 306.249L461.02 338.582C460.104 343.039 462.986 347.41 467.443 348.325L500.135 355.04C504.592 355.956 508.963 353.074 509.878 348.617L514.457 326.329L518.954 333.151C520.571 335.605 523.047 337.282 525.926 337.873C528.805 338.464 531.742 337.899 534.196 336.282L557.161 321.143C559.615 319.525 561.292 317.049 561.883 314.17C562.475 311.291 561.909 308.355 560.292 305.901V305.901ZM504.49 347.51C504.184 348.996 502.728 349.956 501.242 349.651L468.55 342.936C467.064 342.631 466.104 341.174 466.409 339.688L473.05 307.355C473.355 305.87 474.812 304.909 476.298 305.215L508.99 311.93C510.476 312.235 511.436 313.692 511.131 315.177L504.49 347.51ZM554.133 316.55L531.168 331.688C529.941 332.497 528.472 332.78 527.033 332.484C525.594 332.188 524.355 331.35 523.547 330.123L516.022 318.708L516.52 316.284C517.435 311.827 514.554 307.456 510.097 306.541L507.859 306.081C506.973 303.73 507.805 300.966 509.973 299.537L532.939 284.398C534.166 283.589 535.634 283.306 537.074 283.602C538.513 283.898 539.751 284.736 540.56 285.963L555.699 308.929C556.507 310.156 556.79 311.624 556.494 313.063C556.199 314.503 555.36 315.741 554.133 316.55V316.55ZM530.539 305.746C529.271 306.583 528.921 308.288 529.757 309.557C530.593 310.825 532.299 311.176 533.567 310.34C534.836 309.503 535.186 307.797 534.35 306.529C533.514 305.261 531.808 304.91 530.539 305.746Z" fill="white" fill-opacity="0.37"/>
</g>
<g clip-path="url(#clip2_117_42)">
<path d="M689.912 103.681C689.774 103.601 689.621 103.548 689.463 103.527C689.304 103.506 689.143 103.516 688.989 103.557L650.548 113.747L645.861 108.467C645.279 107.812 644.461 107.415 643.586 107.364C642.711 107.312 641.852 107.61 641.196 108.191L624.546 122.974C624.221 123.262 623.957 123.611 623.767 124.001C623.577 124.392 623.466 124.816 623.44 125.249C623.414 125.683 623.474 126.117 623.616 126.527C623.758 126.937 623.98 127.315 624.268 127.64L639.051 144.291C639.339 144.616 639.688 144.88 640.079 145.07C640.469 145.26 640.893 145.37 641.327 145.396C641.76 145.422 642.194 145.362 642.604 145.22C643.014 145.077 643.392 144.856 643.717 144.568L654.636 134.873L663.642 168.842C663.683 168.997 663.754 169.143 663.851 169.27C663.948 169.397 664.069 169.505 664.207 169.585C664.346 169.666 664.498 169.718 664.657 169.74C664.816 169.761 664.977 169.751 665.132 169.71L703.807 159.462C703.868 159.447 703.926 159.426 703.983 159.401C704.25 159.285 704.466 159.077 704.592 158.815C704.718 158.553 704.747 158.255 704.672 157.973L690.478 104.424C690.437 104.269 690.366 104.124 690.269 103.996C690.172 103.869 690.05 103.761 689.912 103.681V103.681ZM642.101 142.747C641.928 142.899 641.702 142.976 641.472 142.963C641.242 142.95 641.027 142.847 640.873 142.676L626.087 126.025C625.934 125.852 625.855 125.626 625.869 125.396C625.882 125.166 625.986 124.95 626.158 124.797L642.814 110.012C642.986 109.859 643.212 109.781 643.442 109.794C643.672 109.808 643.887 109.912 644.04 110.084L658.822 126.738C658.975 126.91 659.053 127.136 659.04 127.366C659.027 127.596 658.922 127.811 658.75 127.964L654.561 131.684C654.552 131.691 654.544 131.698 654.536 131.706L642.101 142.747ZM660.367 129.785C661.022 129.203 661.419 128.384 661.471 127.51C661.523 126.635 661.226 125.776 660.644 125.12L658.149 122.309L657.223 118.815L685.47 111.323L696.903 154.447L668.659 161.937L660.182 129.953L660.367 129.785ZM702.005 157.416L665.685 167.042L656.676 133.062L658.139 131.763L666.615 163.74C666.655 163.895 666.726 164.04 666.823 164.168C666.92 164.295 667.041 164.402 667.18 164.483C667.318 164.564 667.471 164.616 667.63 164.637C667.789 164.659 667.95 164.649 668.105 164.608L698.706 156.492C698.766 156.475 698.825 156.454 698.882 156.43C699.148 156.313 699.364 156.105 699.49 155.843C699.617 155.582 699.645 155.284 699.571 155.003L687.513 109.525C687.473 109.37 687.402 109.224 687.305 109.097C687.208 108.97 687.087 108.862 686.948 108.782C686.81 108.701 686.657 108.649 686.498 108.627C686.34 108.606 686.178 108.616 686.023 108.657L655.422 116.773C655.267 116.813 655.121 116.884 654.993 116.98C654.865 117.077 654.758 117.198 654.677 117.337C654.597 117.475 654.544 117.629 654.523 117.788C654.502 117.947 654.513 118.108 654.555 118.263L652.357 115.787L688.433 106.224L702.005 157.416Z" fill="white" fill-opacity="0.37"/>
<path d="M687.809 131.693C688.121 131.61 688.388 131.407 688.551 131.127C688.713 130.848 688.759 130.515 688.676 130.203L687.658 126.361C687.618 126.205 687.548 126.058 687.451 125.93C687.354 125.801 687.233 125.693 687.094 125.611C686.956 125.53 686.802 125.476 686.643 125.454C686.483 125.433 686.321 125.443 686.166 125.484C686.01 125.525 685.864 125.597 685.736 125.695C685.609 125.793 685.502 125.915 685.422 126.054C685.341 126.194 685.29 126.348 685.269 126.508C685.249 126.667 685.261 126.829 685.304 126.985L686.322 130.827C686.405 131.138 686.608 131.405 686.886 131.567C687.165 131.73 687.497 131.775 687.809 131.693V131.693Z" fill="white" fill-opacity="0.37"/>
<path d="M675.171 148.587C675.696 148.509 676.216 148.403 676.737 148.305L677.692 151.9C677.408 152.02 677.181 152.242 677.055 152.523C676.929 152.804 676.914 153.122 677.014 153.414C677.114 153.705 677.32 153.947 677.592 154.092C677.863 154.237 678.18 154.273 678.477 154.194L684.533 152.587C684.593 152.571 684.652 152.55 684.71 152.525C684.977 152.409 685.193 152.201 685.319 151.938C685.445 151.676 685.473 151.376 685.397 151.095C685.321 150.814 685.147 150.57 684.906 150.406C684.665 150.243 684.373 150.171 684.084 150.205L683.129 146.611C683.63 146.438 684.133 146.27 684.628 146.08L684.76 146.022C685.161 145.848 685.523 145.595 685.825 145.279C686.126 144.963 686.362 144.59 686.518 144.182C686.675 143.774 686.748 143.339 686.734 142.902C686.72 142.465 686.62 142.036 686.438 141.638C686.11 140.896 685.517 140.302 684.775 139.973C684.032 139.644 683.194 139.603 682.424 139.859L678.25 124.135C678.184 123.888 678.043 123.668 677.845 123.506L673.702 120.107C673.553 119.985 673.377 119.899 673.188 119.858C673 119.817 672.804 119.822 672.618 119.871C672.431 119.92 672.259 120.013 672.116 120.142C671.972 120.271 671.861 120.433 671.792 120.613L669.879 125.618C669.789 125.857 669.775 126.118 669.84 126.365L674.012 142.094C673.171 142.268 672.431 142.764 671.95 143.476C671.469 144.187 671.284 145.058 671.435 145.904C671.586 146.749 672.061 147.503 672.758 148.004C673.456 148.505 674.321 148.714 675.171 148.587V148.587ZM681.723 150.812L680.041 151.258L679.119 147.789C679.683 147.65 680.243 147.501 680.801 147.342L681.723 150.812ZM672.293 126.123L673.462 123.065L675.994 125.142L680.114 140.655C678.897 141.043 677.662 141.371 676.411 141.637L672.293 126.123ZM673.821 145.38C673.799 145.165 673.861 144.95 673.993 144.779C674.125 144.609 674.318 144.495 674.531 144.462C674.887 144.408 675.245 144.333 675.601 144.269C675.69 144.263 675.778 144.247 675.864 144.222C677.891 143.845 679.886 143.316 681.834 142.641C681.855 142.637 681.876 142.637 681.898 142.631C681.958 142.615 682.017 142.594 682.074 142.569C682.098 142.559 682.119 142.544 682.142 142.532C682.474 142.414 682.809 142.306 683.137 142.18C683.296 142.125 683.467 142.118 683.63 142.158C683.793 142.198 683.942 142.284 684.057 142.406C684.173 142.528 684.251 142.681 684.282 142.846C684.313 143.011 684.296 143.181 684.233 143.337C684.19 143.445 684.125 143.543 684.042 143.624C683.959 143.706 683.86 143.768 683.75 143.808C681.658 144.61 679.506 145.247 677.314 145.714L677.309 145.717L677.306 145.718C676.476 145.896 675.643 146.054 674.805 146.182C674.691 146.2 674.574 146.194 674.462 146.164C674.349 146.135 674.244 146.083 674.153 146.011C674.056 145.935 673.977 145.84 673.92 145.731C673.862 145.622 673.829 145.502 673.821 145.38V145.38Z" fill="white" fill-opacity="0.37"/>
<path d="M669.116 178.81L668.629 178.218C667.551 176.609 666.62 174.907 665.846 173.132C665.825 173.09 665.802 173.049 665.776 173.01C665.72 172.846 665.628 172.697 665.508 172.572C665.448 172.513 659.981 167.048 657.191 162.154L657.601 161.974C657.897 161.845 658.129 161.604 658.247 161.303C658.365 161.002 658.358 160.667 658.229 160.371L656.557 156.545C656.459 156.321 656.295 156.131 656.086 156.001C655.878 155.872 655.635 155.808 655.39 155.819C655.484 154.708 655.288 153.592 654.821 152.579C654.354 151.566 653.632 150.692 652.726 150.043C651.82 149.393 650.76 148.99 649.651 148.873C648.542 148.757 647.422 148.93 646.4 149.376C645.378 149.823 644.489 150.527 643.822 151.42C643.154 152.313 642.73 153.365 642.591 154.471C642.452 155.578 642.602 156.701 643.028 157.732C643.454 158.763 644.14 159.665 645.02 160.351C644.845 160.523 644.727 160.744 644.68 160.984C644.633 161.225 644.661 161.474 644.759 161.699L646.43 165.525C646.494 165.671 646.586 165.804 646.702 165.915C646.817 166.026 646.953 166.113 647.102 166.171C647.251 166.23 647.41 166.258 647.569 166.255C647.729 166.252 647.887 166.217 648.034 166.153L648.441 165.975C650.136 171.343 650.439 179.074 650.442 179.155C650.452 179.325 650.499 179.491 650.579 179.642C650.591 179.69 650.606 179.736 650.624 179.782C650.871 180.348 651.297 181.433 651.697 182.585C652.026 183.462 652.284 184.365 652.469 185.284L652.57 186.037C652.075 186.503 651.736 187.109 651.599 187.774C651.461 188.44 651.532 189.131 651.803 189.754L652.638 191.667C652.702 191.814 652.794 191.946 652.91 192.057C653.025 192.168 653.161 192.255 653.31 192.313C653.459 192.372 653.618 192.4 653.778 192.397C653.937 192.394 654.095 192.359 654.242 192.295L672.573 184.286C672.869 184.156 673.101 183.915 673.219 183.614C673.337 183.313 673.33 182.978 673.201 182.682L672.365 180.77C672.091 180.148 671.632 179.627 671.05 179.276C670.469 178.925 669.793 178.762 669.116 178.81V178.81ZM653.994 181.789C653.782 181.172 653.543 180.52 653.316 179.935L664.126 175.212C664.845 176.762 665.693 178.248 666.662 179.655L654.854 184.814C654.641 183.786 654.353 182.775 653.994 181.789V181.789ZM648.694 163.208L648.175 163.435L647.478 161.841L654.811 158.637L655.507 160.231L648.694 163.208ZM647.382 151.632C648.122 151.306 648.943 151.214 649.737 151.365C650.53 151.517 651.259 151.906 651.827 152.48C652.395 153.055 652.775 153.789 652.917 154.584C653.059 155.38 652.956 156.2 652.622 156.935L647.713 159.081C646.946 158.826 646.274 158.344 645.787 157.7C645.3 157.055 645.02 156.278 644.984 155.471C644.948 154.663 645.158 153.864 645.586 153.179C646.014 152.493 646.64 151.954 647.381 151.632L647.382 151.632ZM654.946 163.134C657.135 167.067 660.863 171.231 662.702 173.177L652.788 177.508C652.609 174.838 652.083 169.275 650.683 164.996L654.946 163.134ZM670.477 182.545L654.378 189.579L654.029 188.781C653.937 188.57 653.932 188.331 654.017 188.116C654.101 187.901 654.267 187.729 654.478 187.636L668.983 181.298C669.195 181.206 669.434 181.202 669.649 181.286C669.863 181.37 670.036 181.536 670.129 181.747L670.477 182.545Z" fill="white" fill-opacity="0.37"/>
<path d="M642.168 130.028C641.515 129.99 640.866 130.145 640.302 130.476C639.738 130.806 639.284 131.296 638.999 131.884C638.713 132.472 638.608 133.132 638.698 133.779C638.787 134.427 639.066 135.033 639.5 135.522C639.861 135.929 640.316 136.24 640.826 136.428C641.336 136.616 641.884 136.676 642.422 136.602C642.961 136.527 643.473 136.321 643.912 136.002C644.352 135.683 644.707 135.26 644.944 134.771C645.181 134.282 645.295 133.743 645.273 133.199C645.252 132.656 645.098 132.127 644.823 131.658C644.549 131.189 644.163 130.795 643.7 130.51C643.236 130.226 642.71 130.061 642.168 130.028V130.028ZM642.84 133.379C642.833 133.493 642.804 133.605 642.754 133.708C642.704 133.81 642.634 133.902 642.549 133.978C642.442 134.074 642.313 134.142 642.173 134.175C642.034 134.209 641.888 134.208 641.75 134.172C641.611 134.136 641.483 134.066 641.377 133.969C641.272 133.872 641.192 133.75 641.145 133.614C641.099 133.478 641.086 133.333 641.109 133.192C641.131 133.05 641.189 132.916 641.276 132.802C641.363 132.688 641.476 132.597 641.607 132.537C641.738 132.478 641.881 132.452 642.024 132.461C642.254 132.475 642.47 132.58 642.623 132.752C642.776 132.925 642.855 133.151 642.841 133.382L642.84 133.379Z" fill="white" fill-opacity="0.37"/>
<path d="M637.696 128.511C638.021 128.223 638.286 127.874 638.475 127.484C638.665 127.093 638.776 126.669 638.802 126.236C638.828 125.803 638.768 125.369 638.626 124.958C638.484 124.548 638.263 124.17 637.974 123.846C637.569 123.39 637.046 123.055 636.463 122.878C635.88 122.702 635.259 122.689 634.669 122.843C634.079 122.997 633.543 123.311 633.121 123.751C632.699 124.19 632.406 124.738 632.275 125.333C632.145 125.929 632.181 126.549 632.381 127.125C632.581 127.701 632.936 128.21 633.407 128.597C633.879 128.983 634.448 129.232 635.052 129.315C635.655 129.399 636.27 129.314 636.829 129.069C637.146 128.93 637.438 128.742 637.696 128.511V128.511ZM634.851 126.619C634.736 126.49 634.662 126.331 634.638 126.16C634.614 125.989 634.641 125.815 634.716 125.66C634.791 125.504 634.91 125.375 635.059 125.288C635.207 125.2 635.379 125.159 635.551 125.169C635.723 125.179 635.888 125.239 636.026 125.343C636.163 125.447 636.267 125.59 636.323 125.753C636.38 125.916 636.387 126.092 636.343 126.259C636.3 126.425 636.208 126.576 636.079 126.69C635.906 126.843 635.68 126.921 635.45 126.908C635.22 126.895 635.005 126.791 634.851 126.619V126.619Z" fill="white" fill-opacity="0.37"/>
<path d="M652.71 126.915C652.737 126.482 652.678 126.048 652.536 125.637C652.394 125.227 652.172 124.849 651.882 124.525C651.375 123.954 650.685 123.577 649.93 123.457C649.175 123.338 648.403 123.483 647.743 123.87C647.084 124.256 646.579 124.859 646.315 125.575C646.05 126.292 646.042 127.079 646.292 127.801C646.542 128.523 647.035 129.136 647.686 129.535C648.338 129.935 649.107 130.096 649.864 129.992C650.621 129.887 651.318 129.524 651.837 128.963C652.356 128.402 652.665 127.679 652.71 126.916L652.71 126.915ZM650.279 126.771C650.267 126.972 650.186 127.163 650.049 127.31C649.913 127.458 649.729 127.554 649.529 127.582C649.33 127.609 649.127 127.567 648.955 127.461C648.784 127.356 648.654 127.195 648.588 127.004C648.522 126.814 648.524 126.607 648.594 126.418C648.664 126.229 648.797 126.07 648.97 125.968C649.144 125.866 649.348 125.828 649.547 125.86C649.746 125.891 649.927 125.991 650.061 126.141C650.137 126.227 650.196 126.326 650.233 126.434C650.27 126.542 650.286 126.657 650.279 126.771V126.771Z" fill="white" fill-opacity="0.37"/>
<path d="M645.137 121.906C645.752 121.356 646.138 120.595 646.217 119.774C646.296 118.953 646.063 118.133 645.564 117.476C645.065 116.819 644.337 116.374 643.525 116.23C642.713 116.086 641.876 116.253 641.181 116.698C640.487 117.144 639.986 117.834 639.778 118.632C639.57 119.43 639.67 120.278 640.059 121.005C640.448 121.733 641.096 122.287 641.875 122.558C642.655 122.829 643.507 122.796 644.263 122.466C644.582 122.327 644.877 122.138 645.137 121.906V121.906ZM642.892 120.305C642.691 120.293 642.5 120.212 642.353 120.075C642.205 119.938 642.109 119.755 642.081 119.555C642.054 119.356 642.096 119.153 642.201 118.981C642.307 118.809 642.468 118.68 642.659 118.614C642.849 118.548 643.056 118.55 643.245 118.62C643.434 118.689 643.593 118.822 643.695 118.996C643.796 119.17 643.835 119.374 643.803 119.573C643.772 119.772 643.672 119.953 643.521 120.087C643.436 120.163 643.336 120.221 643.228 120.258C643.12 120.295 643.005 120.31 642.891 120.302L642.892 120.305Z" fill="white" fill-opacity="0.37"/>
</g>
<g clip-path="url(#clip3_117_42)">
<path d="M1136.91 80.6809C1136.77 80.6006 1136.62 80.5484 1136.46 80.5271C1136.3 80.5059 1136.14 80.5161 1135.99 80.5571L1097.55 90.7471L1092.86 85.4674C1092.28 84.8124 1091.46 84.4154 1090.59 84.3636C1089.71 84.3119 1088.85 84.6096 1088.2 85.1913L1071.55 99.9737C1071.22 100.262 1070.96 100.611 1070.77 101.001C1070.58 101.392 1070.47 101.816 1070.44 102.249C1070.41 102.683 1070.47 103.117 1070.62 103.527C1070.76 103.937 1070.98 104.315 1071.27 104.64L1086.05 121.291C1086.34 121.616 1086.69 121.88 1087.08 122.07C1087.47 122.26 1087.89 122.37 1088.33 122.396C1088.76 122.422 1089.19 122.362 1089.6 122.22C1090.01 122.077 1090.39 121.856 1090.72 121.568L1101.64 111.873L1110.64 145.842C1110.68 145.997 1110.75 146.143 1110.85 146.27C1110.95 146.397 1111.07 146.505 1111.21 146.585C1111.35 146.666 1111.5 146.718 1111.66 146.74C1111.82 146.761 1111.98 146.751 1112.13 146.71L1150.81 136.462C1150.87 136.447 1150.93 136.426 1150.98 136.401C1151.25 136.285 1151.47 136.077 1151.59 135.815C1151.72 135.553 1151.75 135.255 1151.67 134.974L1137.48 81.4244C1137.44 81.2693 1137.37 81.1237 1137.27 80.9961C1137.17 80.8685 1137.05 80.7614 1136.91 80.6809V80.6809ZM1089.1 119.747C1088.93 119.899 1088.7 119.976 1088.47 119.963C1088.24 119.95 1088.03 119.847 1087.87 119.676L1073.09 103.025C1072.93 102.852 1072.86 102.626 1072.87 102.396C1072.88 102.166 1072.99 101.95 1073.16 101.797L1089.81 87.0125C1089.99 86.8594 1090.21 86.781 1090.44 86.7944C1090.67 86.8078 1090.89 86.912 1091.04 87.0841L1105.82 103.738C1105.97 103.91 1106.05 104.136 1106.04 104.366C1106.03 104.596 1105.92 104.811 1105.75 104.964L1101.56 108.684C1101.55 108.691 1101.54 108.698 1101.54 108.706L1089.1 119.747ZM1107.37 106.785C1108.02 106.203 1108.42 105.384 1108.47 104.51C1108.52 103.635 1108.23 102.776 1107.64 102.12L1105.15 99.3089L1104.22 95.8151L1132.47 88.3235L1143.9 131.447L1115.66 138.937L1107.18 106.953L1107.37 106.785ZM1149.01 134.416L1112.68 144.042L1103.68 110.062L1105.14 108.763L1113.61 140.74C1113.66 140.895 1113.73 141.04 1113.82 141.168C1113.92 141.295 1114.04 141.402 1114.18 141.483C1114.32 141.564 1114.47 141.616 1114.63 141.637C1114.79 141.659 1114.95 141.649 1115.1 141.608L1145.71 133.492C1145.77 133.475 1145.82 133.454 1145.88 133.43C1146.15 133.313 1146.36 133.105 1146.49 132.843C1146.62 132.582 1146.65 132.284 1146.57 132.003L1134.51 86.5248C1134.47 86.3698 1134.4 86.2245 1134.3 86.097C1134.21 85.9695 1134.09 85.8624 1133.95 85.7818C1133.81 85.7012 1133.66 85.6487 1133.5 85.6273C1133.34 85.6059 1133.18 85.6161 1133.02 85.6571L1102.42 93.7732C1102.27 93.8132 1102.12 93.8836 1101.99 93.9803C1101.87 94.0771 1101.76 94.1983 1101.68 94.3369C1101.6 94.4755 1101.54 94.6288 1101.52 94.7878C1101.5 94.9468 1101.51 95.1084 1101.55 95.2632L1099.36 92.787L1135.43 83.224L1149.01 134.416Z" fill="white" fill-opacity="0.37"/>
<path d="M1134.81 108.693C1135.12 108.61 1135.39 108.407 1135.55 108.127C1135.71 107.848 1135.76 107.515 1135.68 107.203L1134.66 103.361C1134.62 103.205 1134.55 103.058 1134.45 102.93C1134.35 102.801 1134.23 102.693 1134.09 102.611C1133.96 102.53 1133.8 102.476 1133.64 102.454C1133.48 102.433 1133.32 102.443 1133.17 102.484C1133.01 102.525 1132.86 102.597 1132.74 102.695C1132.61 102.793 1132.5 102.915 1132.42 103.054C1132.34 103.194 1132.29 103.348 1132.27 103.508C1132.25 103.667 1132.26 103.829 1132.3 103.985L1133.32 107.827C1133.4 108.138 1133.61 108.405 1133.89 108.567C1134.17 108.73 1134.5 108.775 1134.81 108.693V108.693Z" fill="white" fill-opacity="0.37"/>
<path d="M1122.17 125.587C1122.7 125.509 1123.22 125.403 1123.74 125.305L1124.69 128.9C1124.41 129.02 1124.18 129.242 1124.05 129.523C1123.93 129.804 1123.91 130.122 1124.01 130.414C1124.11 130.705 1124.32 130.947 1124.59 131.092C1124.86 131.237 1125.18 131.273 1125.48 131.194L1131.53 129.587C1131.59 129.571 1131.65 129.55 1131.71 129.525C1131.98 129.409 1132.19 129.201 1132.32 128.938C1132.45 128.676 1132.47 128.376 1132.4 128.095C1132.32 127.814 1132.15 127.57 1131.91 127.406C1131.66 127.243 1131.37 127.171 1131.08 127.205L1130.13 123.611C1130.63 123.438 1131.13 123.27 1131.63 123.08L1131.76 123.022C1132.16 122.848 1132.52 122.595 1132.82 122.279C1133.13 121.963 1133.36 121.59 1133.52 121.182C1133.67 120.774 1133.75 120.339 1133.73 119.902C1133.72 119.465 1133.62 119.036 1133.44 118.638C1133.11 117.896 1132.52 117.302 1131.77 116.973C1131.03 116.644 1130.19 116.603 1129.42 116.859L1125.25 101.135C1125.18 100.888 1125.04 100.668 1124.84 100.506L1120.7 97.1071C1120.55 96.9846 1120.38 96.8994 1120.19 96.8584C1120 96.8174 1119.8 96.8217 1119.62 96.8711C1119.43 96.9205 1119.26 97.0135 1119.12 97.1424C1118.97 97.2713 1118.86 97.4325 1118.79 97.6127L1116.88 102.618C1116.79 102.857 1116.77 103.118 1116.84 103.365L1121.01 119.094C1120.17 119.268 1119.43 119.764 1118.95 120.476C1118.47 121.187 1118.28 122.058 1118.43 122.904C1118.59 123.749 1119.06 124.503 1119.76 125.004C1120.46 125.505 1121.32 125.714 1122.17 125.587V125.587ZM1128.72 127.812L1127.04 128.258L1126.12 124.789C1126.68 124.65 1127.24 124.501 1127.8 124.342L1128.72 127.812ZM1119.29 103.123L1120.46 100.065L1122.99 102.142L1127.11 117.655C1125.9 118.043 1124.66 118.371 1123.41 118.637L1119.29 103.123ZM1120.82 122.38C1120.8 122.165 1120.86 121.95 1120.99 121.779C1121.13 121.609 1121.32 121.495 1121.53 121.462C1121.89 121.408 1122.24 121.333 1122.6 121.269C1122.69 121.263 1122.78 121.247 1122.86 121.222C1124.89 120.845 1126.89 120.316 1128.83 119.641C1128.86 119.637 1128.88 119.637 1128.9 119.631C1128.96 119.615 1129.02 119.594 1129.07 119.569C1129.1 119.559 1129.12 119.544 1129.14 119.532C1129.47 119.414 1129.81 119.306 1130.14 119.18C1130.3 119.125 1130.47 119.118 1130.63 119.158C1130.79 119.198 1130.94 119.284 1131.06 119.406C1131.17 119.528 1131.25 119.681 1131.28 119.846C1131.31 120.011 1131.3 120.181 1131.23 120.337C1131.19 120.445 1131.13 120.543 1131.04 120.624C1130.96 120.706 1130.86 120.768 1130.75 120.808C1128.66 121.61 1126.51 122.247 1124.31 122.714L1124.31 122.717L1124.31 122.718C1123.48 122.896 1122.64 123.054 1121.81 123.182C1121.69 123.2 1121.57 123.194 1121.46 123.164C1121.35 123.135 1121.24 123.083 1121.15 123.011C1121.06 122.935 1120.98 122.84 1120.92 122.731C1120.86 122.622 1120.83 122.502 1120.82 122.38V122.38Z" fill="white" fill-opacity="0.37"/>
<path d="M1116.12 155.81L1115.63 155.218C1114.55 153.609 1113.62 151.907 1112.85 150.132C1112.83 150.09 1112.8 150.049 1112.78 150.01C1112.72 149.846 1112.63 149.697 1112.51 149.572C1112.45 149.513 1106.98 144.048 1104.19 139.154L1104.6 138.974C1104.9 138.845 1105.13 138.604 1105.25 138.303C1105.36 138.002 1105.36 137.667 1105.23 137.371L1103.56 133.545C1103.46 133.321 1103.29 133.131 1103.09 133.001C1102.88 132.872 1102.64 132.808 1102.39 132.819C1102.48 131.708 1102.29 130.592 1101.82 129.579C1101.35 128.566 1100.63 127.692 1099.73 127.043C1098.82 126.393 1097.76 125.99 1096.65 125.873C1095.54 125.757 1094.42 125.93 1093.4 126.376C1092.38 126.823 1091.49 127.527 1090.82 128.42C1090.15 129.314 1089.73 130.365 1089.59 131.471C1089.45 132.578 1089.6 133.701 1090.03 134.732C1090.45 135.763 1091.14 136.665 1092.02 137.351C1091.85 137.523 1091.73 137.744 1091.68 137.984C1091.63 138.225 1091.66 138.474 1091.76 138.699L1093.43 142.525C1093.49 142.672 1093.59 142.804 1093.7 142.915C1093.82 143.026 1093.95 143.113 1094.1 143.171C1094.25 143.23 1094.41 143.258 1094.57 143.255C1094.73 143.252 1094.89 143.217 1095.03 143.153L1095.44 142.975C1097.14 148.343 1097.44 156.074 1097.44 156.155C1097.45 156.325 1097.5 156.491 1097.58 156.642C1097.59 156.69 1097.61 156.736 1097.62 156.782C1097.87 157.348 1098.3 158.433 1098.7 159.585C1099.03 160.462 1099.28 161.365 1099.47 162.284L1099.57 163.037C1099.08 163.503 1098.74 164.109 1098.6 164.774C1098.46 165.44 1098.53 166.131 1098.8 166.754L1099.64 168.667C1099.7 168.814 1099.79 168.946 1099.91 169.057C1100.02 169.168 1100.16 169.255 1100.31 169.314C1100.46 169.372 1100.62 169.4 1100.78 169.397C1100.94 169.394 1101.1 169.359 1101.24 169.295L1119.57 161.286C1119.87 161.156 1120.1 160.915 1120.22 160.614C1120.34 160.314 1120.33 159.978 1120.2 159.682L1119.37 157.77C1119.09 157.148 1118.63 156.627 1118.05 156.276C1117.47 155.925 1116.79 155.762 1116.12 155.81V155.81ZM1100.99 158.789C1100.78 158.172 1100.54 157.52 1100.32 156.935L1111.13 152.212C1111.84 153.762 1112.69 155.248 1113.66 156.655L1101.85 161.814C1101.64 160.786 1101.35 159.775 1100.99 158.789V158.789ZM1095.69 140.208L1095.17 140.435L1094.48 138.841L1101.81 135.637L1102.51 137.231L1095.69 140.208ZM1094.38 128.632C1095.12 128.307 1095.94 128.214 1096.74 128.365C1097.53 128.517 1098.26 128.906 1098.83 129.48C1099.4 130.055 1099.78 130.789 1099.92 131.584C1100.06 132.38 1099.96 133.2 1099.62 133.935L1094.71 136.081C1093.95 135.826 1093.27 135.344 1092.79 134.7C1092.3 134.055 1092.02 133.278 1091.98 132.471C1091.95 131.663 1092.16 130.864 1092.59 130.179C1093.01 129.493 1093.64 128.954 1094.38 128.632L1094.38 128.632ZM1101.95 140.134C1104.14 144.067 1107.86 148.231 1109.7 150.177L1099.79 154.508C1099.61 151.838 1099.08 146.275 1097.68 141.996L1101.95 140.134ZM1117.48 159.545L1101.38 166.579L1101.03 165.781C1100.94 165.57 1100.93 165.331 1101.02 165.116C1101.1 164.901 1101.27 164.729 1101.48 164.636L1115.98 158.298C1116.19 158.206 1116.43 158.202 1116.65 158.286C1116.86 158.37 1117.04 158.536 1117.13 158.747L1117.48 159.545Z" fill="white" fill-opacity="0.37"/>
<path d="M1089.17 107.028C1088.52 106.99 1087.87 107.145 1087.3 107.476C1086.74 107.806 1086.28 108.296 1086 108.884C1085.71 109.472 1085.61 110.132 1085.7 110.779C1085.79 111.427 1086.07 112.033 1086.5 112.522C1086.86 112.929 1087.32 113.24 1087.83 113.428C1088.34 113.616 1088.88 113.676 1089.42 113.602C1089.96 113.527 1090.47 113.321 1090.91 113.002C1091.35 112.683 1091.71 112.26 1091.94 111.771C1092.18 111.282 1092.29 110.743 1092.27 110.199C1092.25 109.656 1092.1 109.127 1091.82 108.658C1091.55 108.189 1091.16 107.795 1090.7 107.51C1090.24 107.226 1089.71 107.061 1089.17 107.028V107.028ZM1089.84 110.379C1089.83 110.493 1089.8 110.605 1089.75 110.708C1089.7 110.81 1089.63 110.902 1089.55 110.978C1089.44 111.074 1089.31 111.142 1089.17 111.175C1089.03 111.209 1088.89 111.208 1088.75 111.172C1088.61 111.136 1088.48 111.066 1088.38 110.969C1088.27 110.872 1088.19 110.75 1088.15 110.614C1088.1 110.478 1088.09 110.333 1088.11 110.192C1088.13 110.05 1088.19 109.916 1088.28 109.802C1088.36 109.688 1088.48 109.597 1088.61 109.537C1088.74 109.478 1088.88 109.452 1089.02 109.461C1089.25 109.475 1089.47 109.58 1089.62 109.752C1089.78 109.925 1089.85 110.151 1089.84 110.382L1089.84 110.379Z" fill="white" fill-opacity="0.37"/>
<path d="M1084.7 105.511C1085.02 105.223 1085.29 104.874 1085.48 104.484C1085.67 104.093 1085.78 103.669 1085.8 103.236C1085.83 102.803 1085.77 102.369 1085.63 101.959C1085.48 101.548 1085.26 101.17 1084.97 100.846C1084.57 100.39 1084.05 100.055 1083.46 99.8785C1082.88 99.7016 1082.26 99.6894 1081.67 99.8434C1081.08 99.9974 1080.54 100.311 1080.12 100.751C1079.7 101.19 1079.41 101.738 1079.28 102.333C1079.14 102.929 1079.18 103.549 1079.38 104.125C1079.58 104.701 1079.94 105.21 1080.41 105.597C1080.88 105.983 1081.45 106.232 1082.05 106.315C1082.66 106.399 1083.27 106.314 1083.83 106.069C1084.15 105.93 1084.44 105.742 1084.7 105.511V105.511ZM1081.85 103.619C1081.74 103.49 1081.66 103.331 1081.64 103.16C1081.61 102.989 1081.64 102.815 1081.72 102.66C1081.79 102.505 1081.91 102.375 1082.06 102.288C1082.21 102.2 1082.38 102.159 1082.55 102.169C1082.72 102.179 1082.89 102.239 1083.03 102.343C1083.16 102.447 1083.27 102.59 1083.32 102.753C1083.38 102.916 1083.39 103.092 1083.34 103.259C1083.3 103.425 1083.21 103.576 1083.08 103.69C1082.91 103.843 1082.68 103.921 1082.45 103.908C1082.22 103.895 1082 103.791 1081.85 103.619V103.619Z" fill="white" fill-opacity="0.37"/>
<path d="M1099.71 103.915C1099.74 103.482 1099.68 103.048 1099.54 102.637C1099.39 102.227 1099.17 101.849 1098.88 101.525C1098.37 100.954 1097.68 100.577 1096.93 100.457C1096.18 100.338 1095.4 100.483 1094.74 100.87C1094.08 101.256 1093.58 101.859 1093.31 102.576C1093.05 103.292 1093.04 104.079 1093.29 104.801C1093.54 105.523 1094.04 106.136 1094.69 106.535C1095.34 106.935 1096.11 107.096 1096.86 106.992C1097.62 106.887 1098.32 106.524 1098.84 105.963C1099.36 105.402 1099.66 104.679 1099.71 103.916L1099.71 103.915ZM1097.28 103.771C1097.27 103.972 1097.19 104.163 1097.05 104.31C1096.91 104.458 1096.73 104.554 1096.53 104.582C1096.33 104.609 1096.13 104.567 1095.96 104.461C1095.78 104.356 1095.65 104.195 1095.59 104.004C1095.52 103.814 1095.52 103.607 1095.59 103.418C1095.66 103.229 1095.8 103.07 1095.97 102.968C1096.14 102.866 1096.35 102.828 1096.55 102.86C1096.75 102.891 1096.93 102.991 1097.06 103.141C1097.14 103.227 1097.2 103.326 1097.23 103.434C1097.27 103.542 1097.29 103.657 1097.28 103.771V103.771Z" fill="white" fill-opacity="0.37"/>
<path d="M1092.14 98.906C1092.75 98.3565 1093.14 97.5954 1093.22 96.7743C1093.3 95.9533 1093.06 95.1325 1092.56 94.4757C1092.07 93.8188 1091.34 93.374 1090.52 93.23C1089.71 93.0859 1088.88 93.2532 1088.18 93.6984C1087.49 94.1436 1086.99 94.8341 1086.78 95.6323C1086.57 96.4305 1086.67 97.2778 1087.06 98.0053C1087.45 98.7329 1088.1 99.2872 1088.88 99.558C1089.65 99.8287 1090.51 99.7959 1091.26 99.4662C1091.58 99.3269 1091.88 99.1378 1092.14 98.906V98.906ZM1089.89 97.305C1089.69 97.2932 1089.5 97.2119 1089.35 97.0752C1089.2 96.9385 1089.11 96.7547 1089.08 96.5552C1089.05 96.3557 1089.1 96.1528 1089.2 95.9811C1089.31 95.8094 1089.47 95.6795 1089.66 95.6136C1089.85 95.5477 1090.06 95.5498 1090.25 95.6195C1090.43 95.6893 1090.59 95.8225 1090.69 95.9963C1090.8 96.1701 1090.83 96.3738 1090.8 96.5727C1090.77 96.7716 1090.67 96.9534 1090.52 97.0871C1090.44 97.1629 1090.34 97.221 1090.23 97.258C1090.12 97.2949 1090.01 97.3101 1089.89 97.3025L1089.89 97.305Z" fill="white" fill-opacity="0.37"/>
</g>
<defs>
<clipPath id="clip0_117_42">
<rect width="89.064" height="89.064" fill="white" transform="translate(713 446.66) rotate(-23.6023)"/>
</clipPath>
<clipPath id="clip1_117_42">
<rect width="93.8889" height="93.8889" fill="white" transform="translate(477.146 260.073) rotate(11.6073)"/>
</clipPath>
<clipPath id="clip2_117_42">
<rect width="89.064" height="89.064" fill="white" transform="translate(604 120.66) rotate(-23.6023)"/>
</clipPath>
<clipPath id="clip3_117_42">
<rect width="89.064" height="89.064" fill="white" transform="translate(1051 97.6599) rotate(-23.6023)"/>
</clipPath>
</defs>
</svg>
