<svg width="56" height="56" viewBox="0 0 56 56" fill="none" xmlns="http://www.w3.org/2000/svg">
<path fill-rule="evenodd" clip-rule="evenodd" d="M6.41668 4.66663C4.16151 4.66663 2.33334 6.4948 2.33334 8.74996V16.9166C2.33334 19.1718 4.16151 21 6.41668 21H49.5833C51.8385 21 53.6667 19.1718 53.6667 16.9166V8.74996C53.6667 6.4948 51.8385 4.66663 49.5833 4.66663H6.41668ZM49.5833 8.16663H6.41668C6.09451 8.16663 5.83334 8.42779 5.83334 8.74996V16.9166C5.83334 17.2388 6.09451 17.5 6.41668 17.5H49.5833C49.9055 17.5 50.1667 17.2388 50.1667 16.9166V8.74996C50.1667 8.42779 49.9055 8.16663 49.5833 8.16663Z" fill="#862FCA"/>
<path d="M6.41668 23.3333C7.38318 23.3333 8.16668 24.1168 8.16668 25.0833V47.25C8.16668 47.5721 8.42785 47.8333 8.75001 47.8333H47.25C47.5722 47.8333 47.8333 47.5721 47.8333 47.25V25.0833C47.8333 24.1168 48.6168 23.3333 49.5833 23.3333C50.5498 23.3333 51.3333 24.1168 51.3333 25.0833V47.25C51.3333 49.5051 49.5052 51.3333 47.25 51.3333H8.75001C6.49485 51.3333 4.66668 49.5051 4.66668 47.25V25.0833C4.66668 24.1168 5.45018 23.3333 6.41668 23.3333Z" fill="#862FCA"/>
<path d="M22.75 26.8333C21.7835 26.8333 21 27.6168 21 28.5833C21 29.5498 21.7835 30.3333 22.75 30.3333H33.25C34.2165 30.3333 35 29.5498 35 28.5833C35 27.6168 34.2165 26.8333 33.25 26.8333H22.75Z" fill="#862FCA"/>
</svg>
