<svg width="56" height="56" viewBox="0 0 56 56" fill="none" xmlns="http://www.w3.org/2000/svg">
<path fill-rule="evenodd" clip-rule="evenodd" d="M5.25002 9.33337C4.92785 9.33337 4.66669 9.59454 4.66669 9.91671V46.0834C4.66669 46.4055 4.92785 46.6667 5.25002 46.6667H12.6654L32.6658 25.6137C34.2473 23.949 36.8899 23.9151 38.5136 25.5387L51.3334 38.3585V9.91671C51.3334 9.59454 51.0722 9.33337 50.75 9.33337H5.25002ZM13.407 50.1667H13.4258H50.75C53.0052 50.1667 54.8334 48.3385 54.8334 46.0834V42.5879V42.5789V9.91671C54.8334 7.66154 53.0052 5.83337 50.75 5.83337H5.25002C2.99486 5.83337 1.16669 7.66154 1.16669 9.91671V46.0834C1.16669 48.3385 2.99486 50.1667 5.25002 50.1667H13.407ZM51.3334 46.0834V43.3083L36.0387 28.0136C35.8067 27.7817 35.4292 27.7865 35.2033 28.0243L17.493 46.6667H50.75C51.0722 46.6667 51.3334 46.4055 51.3334 46.0834ZM21 21.5834C21 23.8385 19.1719 25.6667 16.9167 25.6667C14.6615 25.6667 12.8334 23.8385 12.8334 21.5834C12.8334 19.3282 14.6615 17.5 16.9167 17.5C19.1719 17.5 21 19.3282 21 21.5834ZM24.5 21.5834C24.5 25.7715 21.1048 29.1667 16.9167 29.1667C12.7285 29.1667 9.33335 25.7715 9.33335 21.5834C9.33335 17.3952 12.7285 14 16.9167 14C21.1048 14 24.5 17.3952 24.5 21.5834Z" fill="#862FCA"/>
</svg>
