<svg width="63" height="63" viewBox="0 0 63 63" fill="none" xmlns="http://www.w3.org/2000/svg">
<path d="M31.5 63C48.897 63 63 48.897 63 31.5C63 14.103 48.897 0 31.5 0C14.103 0 0 14.103 0 31.5C0 48.897 14.103 63 31.5 63Z" fill="url(#paint0_linear_1_5)"/>
<path d="M50.0801 25.6937C50.0801 26.2949 49.5927 26.7824 48.9914 26.7824H33.7499C33.1487 26.7824 32.6612 26.295 32.6612 25.6937C32.6612 23.8899 34.1235 22.4276 35.9272 22.4276H46.814C48.6178 22.4278 50.0801 23.8899 50.0801 25.6937ZM30.3387 25.6937C30.3387 23.8899 28.8764 22.4276 27.0726 22.4276H16.1858C14.3821 22.4276 12.9198 23.8899 12.9198 25.6937C12.9198 26.2949 13.4072 26.7824 14.0085 26.7824H29.25C29.8513 26.7824 30.3387 26.295 30.3387 25.6937ZM35.5793 36.7594C35.6667 37.2843 36.1209 37.6691 36.6531 37.6691H37.0159V39.4835C37.0159 40.0847 37.5033 40.5722 38.1047 40.5722C38.706 40.5722 39.1934 40.0849 39.1934 39.4835V37.6691H43.5481V39.4835C43.5481 40.0847 44.0355 40.5722 44.6369 40.5722C45.2382 40.5722 45.7256 40.0849 45.7256 39.4835V37.6691H46.0884C46.6206 37.6691 47.0748 37.2843 47.1623 36.7594L48.4623 28.9597H34.2793L35.5793 36.7594ZM30.5652 31.1371L30.2023 33.3144H32.7977L32.4348 31.1371H30.5652ZM15.8379 36.7594C15.9253 37.2843 16.3795 37.6691 16.9117 37.6691H17.2746V39.4835C17.2746 40.0847 17.7619 40.5722 18.3633 40.5722C18.9646 40.5722 19.452 40.0849 19.452 39.4835V37.6691H23.8067V39.4835C23.8067 40.0847 24.2941 40.5722 24.8955 40.5722C25.4968 40.5722 25.9842 40.0849 25.9842 39.4835V37.6691H26.347C26.8792 37.6691 27.3334 37.2843 27.4209 36.7594L28.7209 28.9597H14.5379L15.8379 36.7594Z" fill="url(#paint1_linear_1_5)"/>
<defs>
<linearGradient id="paint0_linear_1_5" x1="31.5" y1="63" x2="31.5" y2="-10.5" gradientUnits="userSpaceOnUse">
<stop stop-color="#FFBEF9"/>
<stop offset="1" stop-color="#FFF1FF"/>
</linearGradient>
<linearGradient id="paint1_linear_1_5" x1="31.5" y1="40.5724" x2="31.5" y2="22.4278" gradientUnits="userSpaceOnUse">
<stop stop-color="#FF81FF"/>
<stop offset="1" stop-color="#A93AFF"/>
</linearGradient>
</defs>
</svg>
