<svg width="20" height="20" viewBox="0 0 20 20" fill="none" xmlns="http://www.w3.org/2000/svg">
<path d="M20 4.28566C20 3.5279 19.699 2.80117 19.1632 2.26535C18.6273 1.72953 17.9006 1.42851 17.1429 1.42851H16.4286V0.734312C16.4286 0.349936 16.133 0.0200242 15.7487 0.000827672C15.6521 -0.00382556 15.5556 0.0111778 15.465 0.0449286C15.3743 0.0786795 15.2915 0.130475 15.2215 0.197177C15.1515 0.263879 15.0958 0.344098 15.0577 0.432974C15.0196 0.52185 15 0.617532 15 0.714223V1.42851H5V0.734312C5 0.349936 4.70446 0.0200242 4.32009 0.000827672C4.22351 -0.00382556 4.12699 0.0111778 4.03639 0.0449286C3.94578 0.0786795 3.86296 0.130475 3.79296 0.197177C3.72297 0.263879 3.66724 0.344098 3.62916 0.432974C3.59108 0.52185 3.57144 0.617532 3.57143 0.714223V1.42851H2.85714C2.09938 1.42851 1.37266 1.72953 0.836838 2.26535C0.30102 2.80117 0 3.5279 0 4.28566V4.82138C0 4.86874 0.0188138 4.91416 0.0523024 4.94765C0.085791 4.98114 0.131211 4.99995 0.178571 4.99995H19.8214C19.8688 4.99995 19.9142 4.98114 19.9477 4.94765C19.9812 4.91416 20 4.86874 20 4.82138V4.28566ZM0 17.1428C0 17.9006 0.30102 18.6273 0.836838 19.1632C1.37266 19.699 2.09938 20 2.85714 20H17.1429C17.9006 20 18.6273 19.699 19.1632 19.1632C19.699 18.6273 20 17.9006 20 17.1428V6.56246C20 6.52694 19.9859 6.49287 19.9608 6.46775C19.9357 6.44264 19.9016 6.42853 19.8661 6.42853H0.133929C0.0984085 6.42853 0.0643433 6.44264 0.0392268 6.46775C0.0141104 6.49287 0 6.52694 0 6.56246V17.1428ZM15.3571 7.8571C15.5691 7.8571 15.7762 7.91994 15.9524 8.03767C16.1286 8.1554 16.2659 8.32274 16.347 8.51852C16.4281 8.71429 16.4493 8.92972 16.408 9.13756C16.3666 9.3454 16.2646 9.53631 16.1148 9.68615C15.9649 9.83599 15.774 9.93804 15.5662 9.97938C15.3583 10.0207 15.1429 9.9995 14.9471 9.91841C14.7513 9.83732 14.584 9.69999 14.4663 9.52379C14.3486 9.34759 14.2857 9.14044 14.2857 8.92854C14.2857 8.64437 14.3986 8.37185 14.5995 8.17092C14.8005 7.96999 15.073 7.8571 15.3571 7.8571ZM15.3571 11.4285C15.5691 11.4285 15.7762 11.4914 15.9524 11.6091C16.1286 11.7268 16.2659 11.8942 16.347 12.09C16.4281 12.2857 16.4493 12.5012 16.408 12.709C16.3666 12.9168 16.2646 13.1077 16.1148 13.2576C15.9649 13.4074 15.774 13.5095 15.5662 13.5508C15.3583 13.5922 15.1429 13.5709 14.9471 13.4898C14.7513 13.4088 14.584 13.2714 14.4663 13.0952C14.3486 12.919 14.2857 12.7119 14.2857 12.5C14.2857 12.2158 14.3986 11.9433 14.5995 11.7424C14.8005 11.5414 15.073 11.4285 15.3571 11.4285ZM11.7857 7.8571C11.9976 7.8571 12.2048 7.91994 12.381 8.03767C12.5572 8.1554 12.6945 8.32274 12.7756 8.51852C12.8567 8.71429 12.8779 8.92972 12.8366 9.13756C12.7952 9.3454 12.6932 9.53631 12.5433 9.68615C12.3935 9.83599 12.2026 9.93804 11.9947 9.97938C11.7869 10.0207 11.5715 9.9995 11.3757 9.91841C11.1799 9.83732 11.0126 9.69999 10.8949 9.52379C10.7771 9.34759 10.7143 9.14044 10.7143 8.92854C10.7143 8.64437 10.8272 8.37185 11.0281 8.17092C11.229 7.96999 11.5016 7.8571 11.7857 7.8571ZM11.7857 11.4285C11.9976 11.4285 12.2048 11.4914 12.381 11.6091C12.5572 11.7268 12.6945 11.8942 12.7756 12.09C12.8567 12.2857 12.8779 12.5012 12.8366 12.709C12.7952 12.9168 12.6932 13.1077 12.5433 13.2576C12.3935 13.4074 12.2026 13.5095 11.9947 13.5508C11.7869 13.5922 11.5715 13.5709 11.3757 13.4898C11.1799 13.4088 11.0126 13.2714 10.8949 13.0952C10.7771 12.919 10.7143 12.7119 10.7143 12.5C10.7143 12.2158 10.8272 11.9433 11.0281 11.7424C11.229 11.5414 11.5016 11.4285 11.7857 11.4285ZM11.7857 15C11.9976 15 12.2048 15.0628 12.381 15.1806C12.5572 15.2983 12.6945 15.4656 12.7756 15.6614C12.8567 15.8572 12.8779 16.0726 12.8366 16.2804C12.7952 16.4883 12.6932 16.6792 12.5433 16.829C12.3935 16.9789 12.2026 17.0809 11.9947 17.1223C11.7869 17.1636 11.5715 17.1424 11.3757 17.0613C11.1799 16.9802 11.0126 16.8429 10.8949 16.6667C10.7771 16.4905 10.7143 16.2833 10.7143 16.0714C10.7143 15.7873 10.8272 15.5147 11.0281 15.3138C11.229 15.1129 11.5016 15 11.7857 15ZM8.21429 11.4285C8.42619 11.4285 8.63334 11.4914 8.80954 11.6091C8.98573 11.7268 9.12306 11.8942 9.20416 12.09C9.28525 12.2857 9.30647 12.5012 9.26513 12.709C9.22379 12.9168 9.12174 13.1077 8.9719 13.2576C8.82206 13.4074 8.63115 13.5095 8.42331 13.5508C8.21548 13.5922 8.00005 13.5709 7.80427 13.4898C7.60849 13.4088 7.44116 13.2714 7.32343 13.0952C7.2057 12.919 7.14286 12.7119 7.14286 12.5C7.14286 12.2158 7.25574 11.9433 7.45667 11.7424C7.6576 11.5414 7.93013 11.4285 8.21429 11.4285ZM8.21429 15C8.42619 15 8.63334 15.0628 8.80954 15.1806C8.98573 15.2983 9.12306 15.4656 9.20416 15.6614C9.28525 15.8572 9.30647 16.0726 9.26513 16.2804C9.22379 16.4883 9.12174 16.6792 8.9719 16.829C8.82206 16.9789 8.63115 17.0809 8.42331 17.1223C8.21548 17.1636 8.00005 17.1424 7.80427 17.0613C7.60849 16.9802 7.44116 16.8429 7.32343 16.6667C7.2057 16.4905 7.14286 16.2833 7.14286 16.0714C7.14286 15.7873 7.25574 15.5147 7.45667 15.3138C7.6576 15.1129 7.93013 15 8.21429 15ZM4.64286 11.4285C4.85477 11.4285 5.06192 11.4914 5.23811 11.6091C5.41431 11.7268 5.55163 11.8942 5.63273 12.09C5.71382 12.2857 5.73504 12.5012 5.6937 12.709C5.65236 12.9168 5.55031 13.1077 5.40047 13.2576C5.25063 13.4074 5.05972 13.5095 4.85188 13.5508C4.64405 13.5922 4.42862 13.5709 4.23284 13.4898C4.03706 13.4088 3.86973 13.2714 3.752 13.0952C3.63427 12.919 3.57143 12.7119 3.57143 12.5C3.57143 12.2158 3.68431 11.9433 3.88524 11.7424C4.08617 11.5414 4.3587 11.4285 4.64286 11.4285ZM4.64286 15C4.85477 15 5.06192 15.0628 5.23811 15.1806C5.41431 15.2983 5.55163 15.4656 5.63273 15.6614C5.71382 15.8572 5.73504 16.0726 5.6937 16.2804C5.65236 16.4883 5.55031 16.6792 5.40047 16.829C5.25063 16.9789 5.05972 17.0809 4.85188 17.1223C4.64405 17.1636 4.42862 17.1424 4.23284 17.0613C4.03706 16.9802 3.86973 16.8429 3.752 16.6667C3.63427 16.4905 3.57143 16.2833 3.57143 16.0714C3.57143 15.7873 3.68431 15.5147 3.88524 15.3138C4.08617 15.1129 4.3587 15 4.64286 15Z" fill="white"/>
<path d="M20 4.28566C20 3.5279 19.699 2.80117 19.1632 2.26535C18.6273 1.72953 17.9006 1.42851 17.1429 1.42851H16.4286V0.734312C16.4286 0.349936 16.133 0.0200242 15.7487 0.000827672C15.6521 -0.00382556 15.5556 0.0111778 15.465 0.0449286C15.3743 0.0786795 15.2915 0.130475 15.2215 0.197177C15.1515 0.263879 15.0958 0.344098 15.0577 0.432974C15.0196 0.52185 15 0.617532 15 0.714223V1.42851H5V0.734312C5 0.349936 4.70446 0.0200242 4.32009 0.000827672C4.22351 -0.00382556 4.12699 0.0111778 4.03639 0.0449286C3.94578 0.0786795 3.86296 0.130475 3.79296 0.197177C3.72297 0.263879 3.66724 0.344098 3.62916 0.432974C3.59108 0.52185 3.57144 0.617532 3.57143 0.714223V1.42851H2.85714C2.09938 1.42851 1.37266 1.72953 0.836838 2.26535C0.30102 2.80117 0 3.5279 0 4.28566V4.82138C0 4.86874 0.0188138 4.91416 0.0523024 4.94765C0.085791 4.98114 0.131211 4.99995 0.178571 4.99995H19.8214C19.8688 4.99995 19.9142 4.98114 19.9477 4.94765C19.9812 4.91416 20 4.86874 20 4.82138V4.28566ZM0 17.1428C0 17.9006 0.30102 18.6273 0.836838 19.1632C1.37266 19.699 2.09938 20 2.85714 20H17.1429C17.9006 20 18.6273 19.699 19.1632 19.1632C19.699 18.6273 20 17.9006 20 17.1428V6.56246C20 6.52694 19.9859 6.49287 19.9608 6.46775C19.9357 6.44264 19.9016 6.42853 19.8661 6.42853H0.133929C0.0984085 6.42853 0.0643433 6.44264 0.0392268 6.46775C0.0141104 6.49287 0 6.52694 0 6.56246V17.1428ZM15.3571 7.8571C15.5691 7.8571 15.7762 7.91994 15.9524 8.03767C16.1286 8.1554 16.2659 8.32274 16.347 8.51852C16.4281 8.71429 16.4493 8.92972 16.408 9.13756C16.3666 9.3454 16.2646 9.53631 16.1148 9.68615C15.9649 9.83599 15.774 9.93804 15.5662 9.97938C15.3583 10.0207 15.1429 9.9995 14.9471 9.91841C14.7513 9.83732 14.584 9.69999 14.4663 9.52379C14.3486 9.34759 14.2857 9.14044 14.2857 8.92854C14.2857 8.64437 14.3986 8.37185 14.5995 8.17092C14.8005 7.96999 15.073 7.8571 15.3571 7.8571ZM15.3571 11.4285C15.5691 11.4285 15.7762 11.4914 15.9524 11.6091C16.1286 11.7268 16.2659 11.8942 16.347 12.09C16.4281 12.2857 16.4493 12.5012 16.408 12.709C16.3666 12.9168 16.2646 13.1077 16.1148 13.2576C15.9649 13.4074 15.774 13.5095 15.5662 13.5508C15.3583 13.5922 15.1429 13.5709 14.9471 13.4898C14.7513 13.4088 14.584 13.2714 14.4663 13.0952C14.3486 12.919 14.2857 12.7119 14.2857 12.5C14.2857 12.2158 14.3986 11.9433 14.5995 11.7424C14.8005 11.5414 15.073 11.4285 15.3571 11.4285ZM11.7857 7.8571C11.9976 7.8571 12.2048 7.91994 12.381 8.03767C12.5572 8.1554 12.6945 8.32274 12.7756 8.51852C12.8567 8.71429 12.8779 8.92972 12.8366 9.13756C12.7952 9.3454 12.6932 9.53631 12.5433 9.68615C12.3935 9.83599 12.2026 9.93804 11.9947 9.97938C11.7869 10.0207 11.5715 9.9995 11.3757 9.91841C11.1799 9.83732 11.0126 9.69999 10.8949 9.52379C10.7771 9.34759 10.7143 9.14044 10.7143 8.92854C10.7143 8.64437 10.8272 8.37185 11.0281 8.17092C11.229 7.96999 11.5016 7.8571 11.7857 7.8571ZM11.7857 11.4285C11.9976 11.4285 12.2048 11.4914 12.381 11.6091C12.5572 11.7268 12.6945 11.8942 12.7756 12.09C12.8567 12.2857 12.8779 12.5012 12.8366 12.709C12.7952 12.9168 12.6932 13.1077 12.5433 13.2576C12.3935 13.4074 12.2026 13.5095 11.9947 13.5508C11.7869 13.5922 11.5715 13.5709 11.3757 13.4898C11.1799 13.4088 11.0126 13.2714 10.8949 13.0952C10.7771 12.919 10.7143 12.7119 10.7143 12.5C10.7143 12.2158 10.8272 11.9433 11.0281 11.7424C11.229 11.5414 11.5016 11.4285 11.7857 11.4285ZM11.7857 15C11.9976 15 12.2048 15.0628 12.381 15.1806C12.5572 15.2983 12.6945 15.4656 12.7756 15.6614C12.8567 15.8572 12.8779 16.0726 12.8366 16.2804C12.7952 16.4883 12.6932 16.6792 12.5433 16.829C12.3935 16.9789 12.2026 17.0809 11.9947 17.1223C11.7869 17.1636 11.5715 17.1424 11.3757 17.0613C11.1799 16.9802 11.0126 16.8429 10.8949 16.6667C10.7771 16.4905 10.7143 16.2833 10.7143 16.0714C10.7143 15.7873 10.8272 15.5147 11.0281 15.3138C11.229 15.1129 11.5016 15 11.7857 15ZM8.21429 11.4285C8.42619 11.4285 8.63334 11.4914 8.80954 11.6091C8.98573 11.7268 9.12306 11.8942 9.20416 12.09C9.28525 12.2857 9.30647 12.5012 9.26513 12.709C9.22379 12.9168 9.12174 13.1077 8.9719 13.2576C8.82206 13.4074 8.63115 13.5095 8.42331 13.5508C8.21548 13.5922 8.00005 13.5709 7.80427 13.4898C7.60849 13.4088 7.44116 13.2714 7.32343 13.0952C7.2057 12.919 7.14286 12.7119 7.14286 12.5C7.14286 12.2158 7.25574 11.9433 7.45667 11.7424C7.6576 11.5414 7.93013 11.4285 8.21429 11.4285ZM8.21429 15C8.42619 15 8.63334 15.0628 8.80954 15.1806C8.98573 15.2983 9.12306 15.4656 9.20416 15.6614C9.28525 15.8572 9.30647 16.0726 9.26513 16.2804C9.22379 16.4883 9.12174 16.6792 8.9719 16.829C8.82206 16.9789 8.63115 17.0809 8.42331 17.1223C8.21548 17.1636 8.00005 17.1424 7.80427 17.0613C7.60849 16.9802 7.44116 16.8429 7.32343 16.6667C7.2057 16.4905 7.14286 16.2833 7.14286 16.0714C7.14286 15.7873 7.25574 15.5147 7.45667 15.3138C7.6576 15.1129 7.93013 15 8.21429 15ZM4.64286 11.4285C4.85477 11.4285 5.06192 11.4914 5.23811 11.6091C5.41431 11.7268 5.55163 11.8942 5.63273 12.09C5.71382 12.2857 5.73504 12.5012 5.6937 12.709C5.65236 12.9168 5.55031 13.1077 5.40047 13.2576C5.25063 13.4074 5.05972 13.5095 4.85188 13.5508C4.64405 13.5922 4.42862 13.5709 4.23284 13.4898C4.03706 13.4088 3.86973 13.2714 3.752 13.0952C3.63427 12.919 3.57143 12.7119 3.57143 12.5C3.57143 12.2158 3.68431 11.9433 3.88524 11.7424C4.08617 11.5414 4.3587 11.4285 4.64286 11.4285ZM4.64286 15C4.85477 15 5.06192 15.0628 5.23811 15.1806C5.41431 15.2983 5.55163 15.4656 5.63273 15.6614C5.71382 15.8572 5.73504 16.0726 5.6937 16.2804C5.65236 16.4883 5.55031 16.6792 5.40047 16.829C5.25063 16.9789 5.05972 17.0809 4.85188 17.1223C4.64405 17.1636 4.42862 17.1424 4.23284 17.0613C4.03706 16.9802 3.86973 16.8429 3.752 16.6667C3.63427 16.4905 3.57143 16.2833 3.57143 16.0714C3.57143 15.7873 3.68431 15.5147 3.88524 15.3138C4.08617 15.1129 4.3587 15 4.64286 15Z" fill="black" fill-opacity="0.2"/>
</svg>
