<svg width="37" height="37" viewBox="0 0 37 37" fill="none" xmlns="http://www.w3.org/2000/svg">
<g clip-path="url(#clip0_2_139)">
<path d="M36.6236 13.4834C35.3307 9.505 31.0422 7.32012 27.0641 8.61252C26.5385 8.78329 26.0065 9.01945 25.4807 9.31205C25.5966 8.72171 25.6568 8.14265 25.6568 7.59011C25.6568 3.3664 22.7382 0.00358963 18.576 0.00358963C14.4078 0.00358963 11.3433 3.37384 11.3433 7.59011C11.3433 8.14258 11.4035 8.72164 11.5193 9.31205C10.9935 9.01952 10.4615 8.78329 9.93595 8.61252C5.95802 7.31991 1.6692 9.505 0.37644 13.4834C-0.934603 17.5186 1.29609 22.0123 5.24736 23.2962C5.77288 23.467 6.34204 23.5886 6.93939 23.661C6.49864 24.0706 6.10971 24.5037 5.78487 24.9506C3.32603 28.335 4.07897 33.0887 7.46317 35.5475C10.8458 38.0053 15.2393 37.2645 17.7061 33.8691C18.0309 33.4221 18.3225 32.9183 18.576 32.3725C18.8294 32.9183 19.121 33.4221 19.4458 33.8691C21.9159 37.2691 26.1613 38 29.5367 35.5475C32.921 33.0887 33.6739 28.3349 31.2151 24.9506C30.8904 24.5036 30.5012 24.0706 30.0606 23.6609C30.6578 23.5886 31.2273 23.4669 31.7528 23.2962C35.704 22.0124 37.9346 17.5187 36.6236 13.4834ZM18.576 2.1712C21.4229 2.1712 23.4892 4.45017 23.4892 7.59011C23.4892 9.00333 22.9361 10.7457 22.0098 12.251C21.8977 12.4332 21.8459 12.6362 21.8492 12.8363L20.7207 14.7895C20.3833 14.6434 20.014 14.5302 19.6453 14.4551V10.011C19.6453 9.4125 19.1745 8.92724 18.576 8.92724C17.9775 8.92724 17.4923 9.4125 17.4923 10.011V14.4552C17.115 14.5321 16.7523 14.6493 16.4078 14.8003L15.1478 12.7366C15.1352 12.5694 15.0837 12.4029 14.9901 12.251C14.0638 10.7457 13.5108 9.00333 13.5108 7.59011C13.5109 4.50082 15.6884 2.1712 18.576 2.1712ZM5.91712 21.2348C3.13207 20.3298 1.50624 17.0207 2.43789 14.1533C3.3613 11.3115 6.42421 9.75078 9.2662 10.674C10.4329 11.0531 11.7067 11.9058 12.7719 13.005L14.6331 16.0534C14.3373 16.3676 14.0785 16.7168 13.8637 17.0943L9.63424 15.7201C9.0645 15.5351 8.4535 15.8467 8.26857 16.4159C8.0835 16.9852 8.39518 17.5966 8.96434 17.7816L13.1922 19.1554C13.1432 19.5904 13.1466 19.9808 13.1949 20.3957L10.4878 21.3402C8.86541 21.6807 7.1783 21.6445 5.91712 21.2348ZM17.4921 27.9882C17.352 29.7394 16.7778 31.4593 15.9526 32.5951C14.1889 35.0225 11.1492 35.5464 8.73728 33.7939C6.32 32.0376 5.78227 28.6421 7.53854 26.2247C8.97352 24.2494 11.466 23.352 11.6551 23.2287L13.8745 22.4544C14.0744 22.8025 14.3108 23.1269 14.5801 23.421L11.9659 27.0192C11.614 27.5035 11.7214 28.1813 12.2056 28.533C12.6896 28.8848 13.3674 28.7777 13.7194 28.2933L16.3329 24.696C16.6996 24.8635 17.0874 24.9925 17.492 25.0749V27.9882H17.4921ZM18.576 23.0164C16.7833 23.0164 15.3247 21.5579 15.3247 19.7651C15.3247 17.9722 16.7832 16.5137 18.576 16.5137C20.3688 16.5137 21.8274 17.9722 21.8274 19.7651C21.8274 21.5579 20.3688 23.0164 18.576 23.0164ZM28.2627 33.7939C25.7719 35.6037 22.9055 34.9432 21.1993 32.5951C20.3741 31.4593 19.7855 29.7394 19.6453 27.9883V25.075C20.05 24.9925 20.4522 24.8636 20.8189 24.6961L23.4324 28.2934C23.7842 28.7777 24.462 28.8849 24.9462 28.5331C25.4304 28.1813 25.5378 27.5035 25.1859 27.0193L22.5717 23.4211C22.8388 23.1295 23.0735 22.8081 23.2723 22.4633L25.2924 23.1911C25.5414 23.3757 28.0055 24.2206 29.4613 26.2247C31.2178 28.6421 30.68 32.0376 28.2627 33.7939ZM26.5946 21.3562L23.9558 20.4055C24.0063 19.9791 24.0082 19.5861 23.9597 19.1553L28.1876 17.7815C28.7568 17.5965 29.0684 16.9851 28.8834 16.4158C28.6984 15.8465 28.0869 15.535 27.5177 15.7201L23.2882 17.0943C23.0697 16.7102 22.8056 16.3554 22.5032 16.0371L24.2932 12.9392C25.3451 11.8721 26.5906 11.0454 27.7337 10.674C30.5753 9.75078 33.6386 11.3114 34.5621 14.1531C35.4937 17.0206 33.8679 20.3297 31.0828 21.2347H31.0829C29.843 21.6376 28.1916 21.6785 26.5946 21.3562Z" fill="#FFC107"/>
</g>
<defs>
<clipPath id="clip0_2_139">
<rect width="37" height="37" fill="white"/>
</clipPath>
</defs>
</svg>
