<svg width="25" height="25" viewBox="0 0 25 25" fill="none" xmlns="http://www.w3.org/2000/svg">
<g clip-path="url(#clip0_2_135)">
<path d="M24.8459 5.20893C24.6949 5.00198 24.4539 4.87951 24.1978 4.87951H6.1497C6.11473 4.87951 6.07982 4.88164 6.04619 4.88617L5.30343 2.74503C5.22644 2.52359 5.05692 2.34708 4.83906 2.26131L1.09569 0.790769C0.683125 0.629247 0.217582 0.831891 0.055556 1.24395C-0.10619 1.65623 0.0963981 2.12205 0.508735 2.28408L3.90859 3.61967L8.07006 15.6149C7.88638 15.6789 7.73073 15.8198 7.65985 16.017L6.45663 19.3593C6.38289 19.5642 6.41327 19.7919 6.53876 19.97C6.66408 20.1481 6.8679 20.2541 7.08554 20.2541H7.70343C7.32052 20.6802 7.08554 21.2414 7.08554 21.8584C7.08554 23.1854 8.16523 24.2648 9.49198 24.2648C10.8187 24.2648 11.8984 23.1854 11.8984 21.8584C11.8984 21.2414 11.6634 20.6802 11.2805 20.2541H16.5271C16.144 20.6802 15.909 21.2414 15.909 21.8584C15.909 23.1854 16.9885 24.2648 18.3155 24.2648C19.6425 24.2648 20.7219 23.1854 20.7219 21.8584C20.7219 21.2414 20.4869 20.6802 20.1041 20.2541H20.8556C21.2248 20.2541 21.5241 19.9548 21.5241 19.5856C21.5241 19.2164 21.2248 18.9172 20.8556 18.9172H8.03666L8.78183 16.8474C8.87806 16.8879 8.98201 16.9118 9.09083 16.9118H20.8555C21.2043 16.9118 21.5129 16.6865 21.6192 16.3546L24.9615 5.92663C25.0398 5.68248 24.9968 5.41588 24.8459 5.20893ZM9.49198 22.9279C8.90212 22.9279 8.42248 22.4483 8.42248 21.8584C8.42248 21.2685 8.90212 20.7888 9.49198 20.7888C10.0818 20.7888 10.5615 21.2685 10.5615 21.8584C10.5615 22.4483 10.0818 22.9279 9.49198 22.9279ZM18.3154 22.9279C17.7256 22.9279 17.2459 22.4483 17.2459 21.8584C17.2459 21.2685 17.7256 20.7888 18.3154 20.7888C18.9052 20.7888 19.3849 21.2685 19.3849 21.8584C19.3849 22.4483 18.9052 22.9279 18.3154 22.9279ZM22.5201 8.28865H18.4269V6.48382H23.0985L22.5201 8.28865ZM21.3414 11.9651H18.4269V9.8929H22.0057L21.3414 11.9651ZM13.1237 11.9651V9.8929H16.8226V11.9651H13.1237ZM16.8226 13.5695V15.3075H13.1237V13.5695H16.8226V13.5695ZM7.7831 9.8929H11.5195V11.9651H8.50209L7.7831 9.8929ZM13.1237 8.28865V6.48382H16.8226V8.28865H13.1237ZM11.5195 6.48382V8.28865H7.22636L6.60025 6.48382H11.5195ZM9.05877 13.5695H11.5195V15.3075H9.66167L9.05877 13.5695ZM18.4269 15.3076V13.5696H20.8276L20.2706 15.3076H18.4269Z" fill="white"/>
</g>
<defs>
<clipPath id="clip0_2_135">
<rect width="25" height="25" fill="white"/>
</clipPath>
</defs>
</svg>
