<svg width="25" height="25" viewBox="0 0 25 25" fill="none" xmlns="http://www.w3.org/2000/svg">
<path d="M24.6199 22.771L18.457 16.5827C20.0416 14.7641 20.9098 12.4759 20.9098 10.0937C20.9098 4.52814 16.2196 0 10.4549 0C4.69015 0 0 4.52814 0 10.0937C0 15.6593 4.69015 20.1875 10.4549 20.1875C12.619 20.1875 14.6814 19.5573 16.4446 18.361L22.6544 24.5963C22.9139 24.8565 23.263 25 23.6371 25C23.9912 25 24.3272 24.8697 24.5822 24.6327C25.124 24.1293 25.1413 23.2946 24.6199 22.771ZM10.4549 2.63315C14.7159 2.63315 18.1824 5.97988 18.1824 10.0937C18.1824 14.2076 14.7159 17.5543 10.4549 17.5543C6.19384 17.5543 2.72736 14.2076 2.72736 10.0937C2.72736 5.97988 6.19384 2.63315 10.4549 2.63315Z" fill="white"/>
</svg>
