<svg width="132" height="26" viewBox="0 0 132 26" fill="none" xmlns="http://www.w3.org/2000/svg">
<path d="M93 4.14545L94.7975 8.95237L94.9797 9.43967H95.5H100.73L96.7199 12.4132L96.2922 12.7304L96.4506 13.2387L97.9293 17.984L93.3994 15.1337L93 14.8823L92.6006 15.1337L88.0707 17.984L89.5494 13.2387L89.7078 12.7304L89.2801 12.4132L85.2704 9.43967H90.5H91.0203L91.2025 8.95237L93 4.14545Z" fill="white" stroke="white" stroke-width="1.5"/>
<path d="M66 4.14545L67.7975 8.95237L67.9797 9.43967H68.5H73.7296L69.7199 12.4132L69.2922 12.7304L69.4506 13.2387L70.9293 17.984L66.3994 15.1337L66 14.8823L65.6006 15.1337L61.0707 17.984L62.5494 13.2387L62.7078 12.7304L62.2801 12.4132L58.2704 9.43967H63.5H64.0203L64.2025 8.95237L66 4.14545Z" fill="white" stroke="white" stroke-width="1.5"/>
<path d="M39 4.14545L40.7975 8.95237L40.9797 9.43967H41.5H46.7296L42.7199 12.4132L42.2922 12.7304L42.4506 13.2387L43.9293 17.984L39.3994 15.1337L39 14.8823L38.6006 15.1337L34.0707 17.984L35.5494 13.2387L35.7078 12.7304L35.2801 12.4132L31.2704 9.43967H36.5H37.0203L37.2025 8.95237L39 4.14545Z" fill="white" stroke="white" stroke-width="1.5"/>
<path d="M12 4.14545L13.7975 8.95237L13.9797 9.43967H14.5H19.7296L15.7199 12.4132L15.2922 12.7304L15.4506 13.2387L16.9293 17.984L12.3994 15.1337L12 14.8823L11.6006 15.1337L7.07065 17.984L8.54937 13.2387L8.70779 12.7304L8.28008 12.4132L4.27044 9.43967H9.5H10.0203L10.2025 8.95237L12 4.14545Z" fill="white" stroke="white" stroke-width="1.5"/>
<path d="M118 2.00415L120.5 8.68967H128L122.167 13.0156L124.25 19.7011L118 15.7685L111.75 19.7011L113.833 13.0156L108 8.68967H115.5L118 2.00415Z" stroke="white" stroke-width="1.5" stroke-linecap="round" stroke-linejoin="round"/>
</svg>
