<svg width="37" height="37" viewBox="0 0 37 37" fill="none" xmlns="http://www.w3.org/2000/svg">
<g clip-path="url(#clip0_2_89)">
<path d="M36.9036 13.4704C36.6613 12.7211 35.9968 12.189 35.2106 12.1182L24.5314 11.1485L20.3086 1.26449C19.9972 0.54012 19.2881 0.071228 18.5002 0.071228C17.7123 0.071228 17.0032 0.54012 16.6918 1.26618L12.469 11.1485L1.78806 12.1182C1.00328 12.1907 0.34045 12.7211 0.0968301 13.4704C-0.14679 14.2196 0.0781986 15.0413 0.671865 15.5593L8.74408 22.6387L6.36377 33.124C6.1896 33.8949 6.48883 34.6919 7.12851 35.1543C7.47235 35.4027 7.87462 35.5292 8.28027 35.5292C8.63004 35.5292 8.97698 35.4349 9.28835 35.2486L18.5002 29.743L27.7086 35.2486C28.3825 35.6539 29.2319 35.6169 29.8702 35.1543C30.5101 34.6905 30.8091 33.8933 30.6349 33.124L28.2546 22.6387L36.3268 15.5607C36.9205 15.0413 37.1472 14.221 36.9036 13.4704Z" fill="#FFC107"/>
</g>
<defs>
<clipPath id="clip0_2_89">
<rect width="37" height="37" fill="white"/>
</clipPath>
</defs>
</svg>
