<svg width="25" height="25" viewBox="0 0 25 25" fill="none" xmlns="http://www.w3.org/2000/svg">
<path d="M12.5 1.5625C10.3368 1.5625 8.22212 2.20397 6.42346 3.4058C4.62479 4.60763 3.22291 6.31583 2.39507 8.3144C1.56724 10.313 1.35064 12.5121 1.77267 14.6338C2.19469 16.7555 3.23639 18.7043 4.76602 20.234C6.29566 21.7636 8.24454 22.8053 10.3662 23.2273C12.4879 23.6494 14.687 23.4328 16.6856 22.6049C18.6842 21.7771 20.3924 20.3752 21.5942 18.5766C22.796 16.7779 23.4375 14.6632 23.4375 12.5C23.4375 9.5992 22.2852 6.8172 20.234 4.76602C18.1828 2.71484 15.4008 1.5625 12.5 1.5625V1.5625ZM7.03126 20.1094C7.03126 18.659 7.60743 17.268 8.63302 16.2424C9.65861 15.2168 11.0496 14.6406 12.5 14.6406C13.9504 14.6406 15.3414 15.2168 16.367 16.2424C17.3926 17.268 17.9688 18.659 17.9688 20.1094C16.3777 21.2608 14.4639 21.8806 12.5 21.8806C10.5361 21.8806 8.62227 21.2608 7.03126 20.1094V20.1094ZM19.375 18.8516C19.0377 17.2785 18.1712 15.8687 16.9201 14.8574C15.6689 13.8461 14.1088 13.2944 12.5 13.2944C10.8912 13.2944 9.33109 13.8461 8.07994 14.8574C6.82878 15.8687 5.96228 17.2785 5.62501 18.8516C4.38491 17.514 3.56195 15.8436 3.25698 14.0453C2.952 12.2469 3.17825 10.3987 3.90801 8.72702C4.63777 7.05535 5.83933 5.63286 7.36546 4.63387C8.89158 3.63488 10.676 3.10279 12.5 3.10279C14.324 3.10279 16.1084 3.63488 17.6346 4.63387C19.1607 5.63286 20.3622 7.05535 21.092 8.72702C21.8218 10.3987 22.048 12.2469 21.743 14.0453C21.4381 15.8436 20.6151 17.514 19.375 18.8516V18.8516ZM12.5 4.6875C11.7274 4.6875 10.9722 4.9166 10.3298 5.34582C9.68743 5.77505 9.18676 6.38512 8.8911 7.09889C8.59545 7.81267 8.51809 8.59808 8.66881 9.35582C8.81954 10.1136 9.19157 10.8096 9.73787 11.3559C10.2842 11.9022 10.9802 12.2742 11.7379 12.4249C12.4957 12.5757 13.2811 12.4983 13.9949 12.2027C14.7086 11.907 15.3187 11.4063 15.7479 10.7639C16.1772 10.1216 16.4063 9.36633 16.4063 8.59375C16.4063 7.55775 15.9947 6.56418 15.2621 5.83161C14.5296 5.09905 13.536 4.6875 12.5 4.6875ZM12.5 10.9375C12.0365 10.9375 11.5833 10.8 11.1979 10.5425C10.8125 10.285 10.5121 9.91893 10.3347 9.49067C10.1573 9.0624 10.1109 8.59115 10.2013 8.13651C10.2917 7.68187 10.5149 7.26425 10.8427 6.93647C11.1705 6.60869 11.5881 6.38547 12.0428 6.29504C12.4974 6.2046 12.9687 6.25101 13.3969 6.42841C13.8252 6.6058 14.1912 6.90621 14.4488 7.29163C14.7063 7.67706 14.8438 8.1302 14.8438 8.59375C14.8438 9.21535 14.5968 9.81149 14.1573 10.251C13.7177 10.6906 13.1216 10.9375 12.5 10.9375V10.9375Z" fill="white"/>
</svg>
